<svg xmlns="http://www.w3.org/2000/svg" viewBox="0 0 1200 300" width="1200" height="300" role="img" aria-label="taiga — a dark, minimal Hugo theme for learning platforms">
  <title>taiga</title>
  <rect width="1200" height="300" fill="#141311"/>
  <g transform="translate(448.44 96) scale(2.37500)"><rect width="32" height="32" rx="7" fill="#1d1d1c"/><path d="M10.7 12.4L21.3 12.4L25.3 16.8L6.7 16.8Z" fill="#3c3b38"/><path d="M8.5 19.6L23.5 19.6L28.5 24L3.5 24Z" fill="#3c3b38"/><rect x="14.4" y="24" width="3.2" height="4.2" fill="#3c3b38"/><path d="M16 3.4L21.6 9.4L10.4 9.4Z" fill="#ea8a2e"/></g>
  <path transform="translate(554.44 157.04) scale(0.06400 -0.06400)" d="M355 0Q282 0 239.0 42.0Q196 84 196 156V452H41V550H196V705H304V550H526V452H304V157Q304 131 319.0 114.5Q334 98 360 98H521V0Z" fill="#d6d0c2"/>
  <path transform="translate(594.12 157.04) scale(0.06400 -0.06400)" d="M245 -10Q161 -10 111.5 37.5Q62 85 62 162Q62 240 115.0 287.5Q168 335 256 335H408V375Q408 470 301 470Q253 470 224.0 452.0Q195 434 193 402H87Q92 471 149.0 515.5Q206 560 302 560Q404 560 460.0 511.5Q516 463 516 376V0H410V103H409Q402 50 359.0 20.0Q316 -10 245 -10ZM276 79Q337 79 372.5 108.5Q408 138 408 188V259H264Q221 259 195.5 234.0Q170 209 170 170Q170 128 198.0 103.5Q226 79 276 79Z" fill="#d6d0c2"/>
  <path transform="translate(633.80 157.04) scale(0.06400 -0.06400)" d="M81 0V98H272V452H101V550H380V98H557V0ZM317 645Q282 645 261.0 663.5Q240 682 240 713Q240 745 261.0 763.5Q282 782 317 782Q352 782 373.0 763.5Q394 745 394 713Q394 682 373.0 663.5Q352 645 317 645Z" fill="#d6d0c2"/>
  <path transform="translate(673.48 157.04) scale(0.06400 -0.06400)" d="M156 -180V-87H311Q356 -87 382.0 -62.0Q408 -37 408 6V47L410 139Q397 90 358.5 63.0Q320 36 263 36Q178 36 129.0 91.0Q80 146 80 242V353Q80 448 129.0 504.0Q178 560 263 560Q320 560 358.0 533.0Q396 506 409 457V550H515V4Q515 -81 460.5 -130.5Q406 -180 312 -180ZM298 127Q349 127 378.5 158.5Q408 190 408 247V347Q408 403 378.5 434.5Q349 466 298 466Q245 466 216.5 436.0Q188 406 188 354V240Q188 187 216.5 157.0Q245 127 298 127Z" fill="#d6d0c2"/>
  <path transform="translate(713.16 157.04) scale(0.06400 -0.06400)" d="M245 -10Q161 -10 111.5 37.5Q62 85 62 162Q62 240 115.0 287.5Q168 335 256 335H408V375Q408 470 301 470Q253 470 224.0 452.0Q195 434 193 402H87Q92 471 149.0 515.5Q206 560 302 560Q404 560 460.0 511.5Q516 463 516 376V0H410V103H409Q402 50 359.0 20.0Q316 -10 245 -10ZM276 79Q337 79 372.5 108.5Q408 138 408 188V259H264Q221 259 195.5 234.0Q170 209 170 170Q170 128 198.0 103.5Q226 79 276 79Z" fill="#d6d0c2"/>
  <path transform="translate(375.72 228.00) scale(0.01800 -0.01800)" d="M159 -180V-92H314Q359 -92 386.0 -66.5Q413 -41 413 3V49L415 144H414Q404 93 365.5 65.0Q327 37 267 37Q182 37 133.0 91.5Q84 146 84 241V354Q84 449 133.0 504.5Q182 560 267 560Q325 560 363.5 532.0Q402 504 413 455H414V550H511V2Q511 -82 458.0 -131.0Q405 -180 314 -180ZM298 120Q351 120 382.0 153.0Q413 186 413 246V349Q413 408 382.0 441.0Q351 474 298 474Q243 474 213.0 442.5Q183 411 183 357V237Q183 183 213.0 151.5Q243 120 298 120Z" fill="#6f6a62"/>
  <path transform="translate(387.24 228.00) scale(0.01800 -0.01800)" d="M299 -10Q202 -10 144.0 47.0Q86 104 86 202V550H185V202Q185 144 215.5 110.5Q246 77 299 77Q353 77 384.0 110.5Q415 144 415 202V550H514V202Q514 104 455.5 47.0Q397 -10 299 -10Z" fill="#6f6a62"/>
  <path transform="translate(398.76 228.00) scale(0.01800 -0.01800)" d="M83 0V90H276V460H103V550H375V90H556V0ZM316 647Q282 647 262.0 664.5Q242 682 242 712Q242 743 262.0 761.0Q282 779 316 779Q350 779 370.0 761.0Q390 743 390 712Q390 682 370.0 664.5Q350 647 316 647Z" fill="#6f6a62"/>
  <path transform="translate(410.28 228.00) scale(0.01800 -0.01800)" d="M264 -10Q181 -10 132.0 45.5Q83 101 83 196V354Q83 449 132.0 504.5Q181 560 264 560Q325 560 365.5 529.0Q406 498 415 444L413 572V730H512V0H414V107Q405 52 365.0 21.0Q325 -10 264 -10ZM298 76Q351 76 382.0 109.0Q413 142 413 202V348Q413 408 382.0 441.0Q351 474 298 474Q243 474 212.5 445.5Q182 417 182 353V197Q182 133 212.5 104.5Q243 76 298 76Z" fill="#6f6a62"/>
  <path transform="translate(421.80 228.00) scale(0.01800 -0.01800)" d="M300 -10Q201 -10 140.5 49.0Q80 108 80 210V340Q80 442 140.5 501.0Q201 560 300 560Q366 560 415.5 533.5Q465 507 492.5 459.5Q520 412 520 349V250H177V202Q177 142 210.0 108.0Q243 74 300 74Q348 74 379.0 92.0Q410 110 416 142H515Q505 72 446.0 31.0Q387 -10 300 -10ZM177 349V323H423V349Q423 412 391.0 446.0Q359 480 300 480Q241 480 209.0 446.0Q177 412 177 349Z" fill="#6f6a62"/>
  <path transform="translate(433.32 228.00) scale(0.01800 -0.01800)" d="M278 -8Q184 -8 132.0 34.0Q80 76 80 152H178Q178 116 204.5 95.5Q231 75 278 75H322Q371 75 397.5 96.0Q424 117 424 155Q424 222 358 230L210 251Q151 260 119.0 299.5Q87 339 87 402Q87 476 137.0 517.0Q187 558 277 558H321Q405 558 457.0 518.0Q509 478 512 412H412Q410 440 386.0 458.5Q362 477 321 477H277Q232 477 207.5 457.0Q183 437 183 403Q183 348 238 341L377 321Q520 302 520 155Q520 77 468.5 34.5Q417 -8 322 -8Z" fill="#6f6a62"/>
  <path transform="translate(444.84 228.00) scale(0.01800 -0.01800)" d="M205 -160 259 146H376L305 -160Z" fill="#6f6a62"/>
  <path transform="translate(467.88 228.00) scale(0.01800 -0.01800)" d="M278 -8Q184 -8 132.0 34.0Q80 76 80 152H178Q178 116 204.5 95.5Q231 75 278 75H322Q371 75 397.5 96.0Q424 117 424 155Q424 222 358 230L210 251Q151 260 119.0 299.5Q87 339 87 402Q87 476 137.0 517.0Q187 558 277 558H321Q405 558 457.0 518.0Q509 478 512 412H412Q410 440 386.0 458.5Q362 477 321 477H277Q232 477 207.5 457.0Q183 437 183 403Q183 348 238 341L377 321Q520 302 520 155Q520 77 468.5 34.5Q417 -8 322 -8Z" fill="#6f6a62"/>
  <path transform="translate(479.40 228.00) scale(0.01800 -0.01800)" d="M300 -10Q201 -10 140.5 49.0Q80 108 80 210V340Q80 442 140.5 501.0Q201 560 300 560Q366 560 415.5 533.5Q465 507 492.5 459.5Q520 412 520 349V250H177V202Q177 142 210.0 108.0Q243 74 300 74Q348 74 379.0 92.0Q410 110 416 142H515Q505 72 446.0 31.0Q387 -10 300 -10ZM177 349V323H423V349Q423 412 391.0 446.0Q359 480 300 480Q241 480 209.0 446.0Q177 412 177 349Z" fill="#6f6a62"/>
  <path transform="translate(490.92 228.00) scale(0.01800 -0.01800)" d="M108 0V550H206V444H207Q215 498 253.5 529.0Q292 560 356 560Q441 560 488.0 507.5Q535 455 535 360V312H436V359Q436 474 323 474Q266 474 236.5 441.0Q207 408 207 347V0Z" fill="#6f6a62"/>
  <path transform="translate(502.44 228.00) scale(0.01800 -0.01800)" d="M83 0V90H276V460H103V550H375V90H556V0ZM316 647Q282 647 262.0 664.5Q242 682 242 712Q242 743 262.0 761.0Q282 779 316 779Q350 779 370.0 761.0Q390 743 390 712Q390 682 370.0 664.5Q350 647 316 647Z" fill="#6f6a62"/>
  <path transform="translate(513.96 228.00) scale(0.01800 -0.01800)" d="M300 -10Q201 -10 140.5 49.0Q80 108 80 210V340Q80 442 140.5 501.0Q201 560 300 560Q366 560 415.5 533.5Q465 507 492.5 459.5Q520 412 520 349V250H177V202Q177 142 210.0 108.0Q243 74 300 74Q348 74 379.0 92.0Q410 110 416 142H515Q505 72 446.0 31.0Q387 -10 300 -10ZM177 349V323H423V349Q423 412 391.0 446.0Q359 480 300 480Q241 480 209.0 446.0Q177 412 177 349Z" fill="#6f6a62"/>
  <path transform="translate(525.48 228.00) scale(0.01800 -0.01800)" d="M278 -8Q184 -8 132.0 34.0Q80 76 80 152H178Q178 116 204.5 95.5Q231 75 278 75H322Q371 75 397.5 96.0Q424 117 424 155Q424 222 358 230L210 251Q151 260 119.0 299.5Q87 339 87 402Q87 476 137.0 517.0Q187 558 277 558H321Q405 558 457.0 518.0Q509 478 512 412H412Q410 440 386.0 458.5Q362 477 321 477H277Q232 477 207.5 457.0Q183 437 183 403Q183 348 238 341L377 321Q520 302 520 155Q520 77 468.5 34.5Q417 -8 322 -8Z" fill="#6f6a62"/>
  <path transform="translate(537.00 228.00) scale(0.01800 -0.01800)" d="M205 -160 259 146H376L305 -160Z" fill="#6f6a62"/>
  <path transform="translate(560.04 228.00) scale(0.01800 -0.01800)" d="M116 0 27 550H111L165 175Q168 150 171.0 121.0Q174 92 175 74Q177 92 180.0 121.0Q183 150 187 175L253 550H347L413 175Q417 150 420.5 121.5Q424 93 426 74Q428 93 431.0 121.5Q434 150 437 175L493 550H573L480 0H374L313 370Q309 397 305.5 430.0Q302 463 300 482Q299 463 294.5 430.0Q290 397 286 370L223 0Z" fill="#6f6a62"/>
  <path transform="translate(571.56 228.00) scale(0.01800 -0.01800)" d="M83 0V90H276V460H103V550H375V90H556V0ZM316 647Q282 647 262.0 664.5Q242 682 242 712Q242 743 262.0 761.0Q282 779 316 779Q350 779 370.0 761.0Q390 743 390 712Q390 682 370.0 664.5Q350 647 316 647Z" fill="#6f6a62"/>
  <path transform="translate(583.08 228.00) scale(0.01800 -0.01800)" d="M264 -10Q181 -10 132.0 45.5Q83 101 83 196V354Q83 449 132.0 504.5Q181 560 264 560Q325 560 365.5 529.0Q406 498 415 444L413 572V730H512V0H414V107Q405 52 365.0 21.0Q325 -10 264 -10ZM298 76Q351 76 382.0 109.0Q413 142 413 202V348Q413 408 382.0 441.0Q351 474 298 474Q243 474 212.5 445.5Q182 417 182 353V197Q182 133 212.5 104.5Q243 76 298 76Z" fill="#6f6a62"/>
  <path transform="translate(594.60 228.00) scale(0.01800 -0.01800)" d="M159 -180V-92H314Q359 -92 386.0 -66.5Q413 -41 413 3V49L415 144H414Q404 93 365.5 65.0Q327 37 267 37Q182 37 133.0 91.5Q84 146 84 241V354Q84 449 133.0 504.5Q182 560 267 560Q325 560 363.5 532.0Q402 504 413 455H414V550H511V2Q511 -82 458.0 -131.0Q405 -180 314 -180ZM298 120Q351 120 382.0 153.0Q413 186 413 246V349Q413 408 382.0 441.0Q351 474 298 474Q243 474 213.0 442.5Q183 411 183 357V237Q183 183 213.0 151.5Q243 120 298 120Z" fill="#6f6a62"/>
  <path transform="translate(606.12 228.00) scale(0.01800 -0.01800)" d="M300 -10Q201 -10 140.5 49.0Q80 108 80 210V340Q80 442 140.5 501.0Q201 560 300 560Q366 560 415.5 533.5Q465 507 492.5 459.5Q520 412 520 349V250H177V202Q177 142 210.0 108.0Q243 74 300 74Q348 74 379.0 92.0Q410 110 416 142H515Q505 72 446.0 31.0Q387 -10 300 -10ZM177 349V323H423V349Q423 412 391.0 446.0Q359 480 300 480Q241 480 209.0 446.0Q177 412 177 349Z" fill="#6f6a62"/>
  <path transform="translate(617.64 228.00) scale(0.01800 -0.01800)" d="M355 0Q284 0 242.5 41.0Q201 82 201 150V460H44V550H201V705H300V550H523V460H300V151Q300 124 315.5 107.0Q331 90 357 90H518V0Z" fill="#6f6a62"/>
  <path transform="translate(629.16 228.00) scale(0.01800 -0.01800)" d="M278 -8Q184 -8 132.0 34.0Q80 76 80 152H178Q178 116 204.5 95.5Q231 75 278 75H322Q371 75 397.5 96.0Q424 117 424 155Q424 222 358 230L210 251Q151 260 119.0 299.5Q87 339 87 402Q87 476 137.0 517.0Q187 558 277 558H321Q405 558 457.0 518.0Q509 478 512 412H412Q410 440 386.0 458.5Q362 477 321 477H277Q232 477 207.5 457.0Q183 437 183 403Q183 348 238 341L377 321Q520 302 520 155Q520 77 468.5 34.5Q417 -8 322 -8Z" fill="#6f6a62"/>
  <path transform="translate(652.20 228.00) scale(0.01800 -0.01800)" d="M0 286V375H600V286Z" fill="#6f6a62"/>
  <path transform="translate(675.24 228.00) scale(0.01800 -0.01800)" d="M88 0V730H187V550L186 445H187Q194 499 232.5 529.5Q271 560 334 560Q416 560 465.0 508.0Q514 456 514 368V0H415V353Q415 412 385.0 444.0Q355 476 303 476Q249 476 218.0 442.5Q187 409 187 349V0Z" fill="#6f6a62"/>
  <path transform="translate(686.76 228.00) scale(0.01800 -0.01800)" d="M299 -10Q202 -10 144.0 47.0Q86 104 86 202V550H185V202Q185 144 215.5 110.5Q246 77 299 77Q353 77 384.0 110.5Q415 144 415 202V550H514V202Q514 104 455.5 47.0Q397 -10 299 -10Z" fill="#6f6a62"/>
  <path transform="translate(698.28 228.00) scale(0.01800 -0.01800)" d="M159 -180V-92H314Q359 -92 386.0 -66.5Q413 -41 413 3V49L415 144H414Q404 93 365.5 65.0Q327 37 267 37Q182 37 133.0 91.5Q84 146 84 241V354Q84 449 133.0 504.5Q182 560 267 560Q325 560 363.5 532.0Q402 504 413 455H414V550H511V2Q511 -82 458.0 -131.0Q405 -180 314 -180ZM298 120Q351 120 382.0 153.0Q413 186 413 246V349Q413 408 382.0 441.0Q351 474 298 474Q243 474 213.0 442.5Q183 411 183 357V237Q183 183 213.0 151.5Q243 120 298 120Z" fill="#6f6a62"/>
  <path transform="translate(709.80 228.00) scale(0.01800 -0.01800)" d="M300 -8Q199 -8 139.5 50.0Q80 108 80 212V338Q80 442 139.5 500.0Q199 558 300 558Q401 558 460.5 500.0Q520 442 520 338V212Q520 108 460.5 50.0Q401 -8 300 -8ZM300 79Q356 79 388.5 110.5Q421 142 421 203V347Q421 408 388.5 439.5Q356 471 300 471Q244 471 211.5 439.5Q179 408 179 347V203Q179 142 211.5 110.5Q244 79 300 79Z" fill="#6f6a62"/>
  <path transform="translate(721.32 228.00) scale(0.01800 -0.01800)" d="M205 -160 259 146H376L305 -160Z" fill="#6f6a62"/>
  <path transform="translate(744.36 228.00) scale(0.01800 -0.01800)" d="M88 0V550H186V445H187Q194 499 232.5 529.5Q271 560 334 560Q416 560 465.0 508.0Q514 456 514 368V0H415V352Q415 412 385.0 444.0Q355 476 303 476Q249 476 218.0 442.5Q187 409 187 349V0Z" fill="#6f6a62"/>
  <path transform="translate(755.88 228.00) scale(0.01800 -0.01800)" d="M300 -8Q199 -8 139.5 50.0Q80 108 80 212V338Q80 442 139.5 500.0Q199 558 300 558Q401 558 460.5 500.0Q520 442 520 338V212Q520 108 460.5 50.0Q401 -8 300 -8ZM300 79Q356 79 388.5 110.5Q421 142 421 203V347Q421 408 388.5 439.5Q356 471 300 471Q244 471 211.5 439.5Q179 408 179 347V203Q179 142 211.5 110.5Q244 79 300 79Z" fill="#6f6a62"/>
  <path transform="translate(778.92 228.00) scale(0.01800 -0.01800)" d="M88 0V550H186V445H187Q194 499 232.5 529.5Q271 560 334 560Q416 560 465.0 508.0Q514 456 514 368V0H415V352Q415 412 385.0 444.0Q355 476 303 476Q249 476 218.0 442.5Q187 409 187 349V0Z" fill="#6f6a62"/>
  <path transform="translate(790.44 228.00) scale(0.01800 -0.01800)" d="M300 -8Q199 -8 139.5 50.0Q80 108 80 212V338Q80 442 139.5 500.0Q199 558 300 558Q401 558 460.5 500.0Q520 442 520 338V212Q520 108 460.5 50.0Q401 -8 300 -8ZM300 79Q356 79 388.5 110.5Q421 142 421 203V347Q421 408 388.5 439.5Q356 471 300 471Q244 471 211.5 439.5Q179 408 179 347V203Q179 142 211.5 110.5Q244 79 300 79Z" fill="#6f6a62"/>
  <path transform="translate(801.96 228.00) scale(0.01800 -0.01800)" d="M264 -10Q181 -10 132.0 45.5Q83 101 83 196V354Q83 449 132.0 504.5Q181 560 264 560Q325 560 365.5 529.0Q406 498 415 444L413 572V730H512V0H414V107Q405 52 365.0 21.0Q325 -10 264 -10ZM298 76Q351 76 382.0 109.0Q413 142 413 202V348Q413 408 382.0 441.0Q351 474 298 474Q243 474 212.5 445.5Q182 417 182 353V197Q182 133 212.5 104.5Q243 76 298 76Z" fill="#6f6a62"/>
  <path transform="translate(813.48 228.00) scale(0.01800 -0.01800)" d="M300 -10Q201 -10 140.5 49.0Q80 108 80 210V340Q80 442 140.5 501.0Q201 560 300 560Q366 560 415.5 533.5Q465 507 492.5 459.5Q520 412 520 349V250H177V202Q177 142 210.0 108.0Q243 74 300 74Q348 74 379.0 92.0Q410 110 416 142H515Q505 72 446.0 31.0Q387 -10 300 -10ZM177 349V323H423V349Q423 412 391.0 446.0Q359 480 300 480Q241 480 209.0 446.0Q177 412 177 349Z" fill="#6f6a62"/>
  <rect x="552.0" y="258.0" width="96" height="2" rx="1" fill="#ea8a2e" opacity=".55"/>
</svg>
